# xmcd
#
# Track frame offsets:
#	150
#	12378
#	26623
#	38206
#	49444
#	62414
#	72291
#	81774
#	94219
#	106649
#	116732
#	128780
#	138867
#	150697
#	162092
#	173585
#	186788
#	197351
#	209518
#	222548
#	236261
#	249576
#	260536
#	274016
#
# Disc length: 3806 seconds
#
# Revision: 0
# Processed by: cddbd v1.5.2PL0 Copyright (c) Steve Scherf et al.
# Submitted via: EasyCDDAExtractor 16.0.1.1
#
DISCID=4d0edc18
DTITLE=Roy Drusky - Anymore -61 and It's My Way -62
DYEAR=196
DGENRE=Country
TTITLE0=Anymore
TTITLE1=Burning Bridges
TTITLE2=He Had It On His Mind
TTITLE3=I'd Rather Loan You Out
TTITLE4=Almost Can't
TTITLE5=I Wonder Where You Are Tonight
TTITLE6=I've Got Some
TTITLE7=Three Hearts In A Tangle
TTITLE8=Another
TTITLE9=Alone With You
TTITLE10=Before I Lose My Mind
TTITLE11=Swing Wide Your Gate Of Love
TTITLE12=Gone
TTITLE13=Please Help Me I'm Falling
TTITLE14=I Don't Care
TTITLE15='Tis Sweet To Be Remembered
TTITLE16=He'll Have To Go
TTITLE17=It Keeps Right On A-Hurtin'
TTITLE18=Wolverton Mountain
TTITLE19=Have I Stayed Away Too Long
TTITLE20=It's My Way
TTITLE21=Walk On By
TTITLE22=I Forgot More Than You'll Ever Know
TTITLE23=(Remember Me) I'm The One Who Loves You
EXTD=
EXTT0=
EXTT1=
EXTT2=
EXTT3=
EXTT4=
EXTT5=
EXTT6=
EXTT7=
EXTT8=
EXTT9=
EXTT10=
EXTT11=
EXTT12=
EXTT13=
EXTT14=
EXTT15=
EXTT16=
EXTT17=
EXTT18=
EXTT19=
EXTT20=
EXTT21=
EXTT22=
EXTT23=
PLAYORDER=
